<?xml version="1.0" encoding="UTF-8" standalone="no"?>
<!DOCTYPE svg PUBLIC "-//W3C//DTD SVG 1.1//EN" "http://www.w3.org/Graphics/SVG/1.1/DTD/svg11.dtd">
<svg width="100%" height="100%" viewBox="0 0 617 310" version="1.1" xmlns="http://www.w3.org/2000/svg" xmlns:xlink="http://www.w3.org/1999/xlink" xml:space="preserve" xmlns:serif="http://www.serif.com/" style="fill-rule:evenodd;clip-rule:evenodd;stroke-linejoin:round;stroke-miterlimit:2;">
    <g transform="matrix(1,0,0,1,-1623.16,701.994)">
        <g transform="matrix(1.26281,0,0,1.26281,2666.64,1192.48)">
            <path d="M-596.873,-1310.67C-605.419,-1284.6 -637.389,-1283.98 -655.423,-1293.4C-698.366,-1315.84 -706.873,-1451.38 -707.675,-1469.99C-708.265,-1483.67 -697.412,-1487.72 -697.412,-1487.72C-696.4,-1479.04 -694.357,-1471.96 -691.58,-1466.02C-693.476,-1472.19 -691.319,-1487.53 -690.18,-1487.72C-682.551,-1488.99 -676.582,-1480.89 -676.884,-1473.49C-678.355,-1437.44 -670.424,-1380.8 -662.493,-1353.66C-652.297,-1318.79 -625.13,-1317.1 -623.122,-1334.18C-618.661,-1372.15 -647.069,-1388.92 -646.092,-1400.24C-645.145,-1411.22 -633.005,-1414.34 -630.697,-1414C-600.474,-1409.64 -589.98,-1331.69 -596.873,-1310.67ZM-448.915,-1303.2C-464.238,-1285.16 -483.613,-1293.17 -486.879,-1296.44C-486.879,-1296.44 -487.312,-1276.19 -499.942,-1264.25C-499.942,-1264.25 -517.596,-1246.47 -529.334,-1260.28C-531.978,-1263.39 -533.477,-1266.51 -533.3,-1269.61C-532.862,-1277.28 -515.419,-1284.48 -517.671,-1301.8C-523.736,-1294.96 -531.949,-1290.86 -538.198,-1291.54C-603.963,-1298.67 -591.082,-1397.56 -562.458,-1404.67C-544.196,-1409.21 -525.913,-1386.71 -520.47,-1377.85C-521.869,-1385.16 -524.98,-1391.96 -529.801,-1398.26C-534.622,-1404.56 -540.764,-1409.03 -548.229,-1411.67C-514.181,-1411.41 -496.524,-1375.15 -485.946,-1330.26C-483.647,-1320.5 -468.497,-1322.35 -466.44,-1329.13C-462.229,-1343 -474.61,-1379.75 -475.974,-1392.78C-477.084,-1403.38 -465.244,-1407.94 -465.244,-1407.94C-462.133,-1400.08 -460.426,-1390.78 -459.51,-1380.68C-457.269,-1389.44 -456.545,-1398.56 -458.012,-1408.17C-458.012,-1408.17 -446.418,-1406.11 -445.649,-1394.41C-444.646,-1379.15 -441.215,-1328.66 -423.472,-1323.19C-409.485,-1318.88 -390.086,-1318.45 -377.925,-1325.61C-372.462,-1328.83 -369.552,-1335.4 -368.153,-1342.4C-375.306,-1333.84 -383.174,-1329.07 -391.713,-1329.57C-435.639,-1332.12 -447.886,-1434.7 -403.609,-1437.57C-399.264,-1437.85 -394.59,-1435.78 -389.613,-1432.2C-379.972,-1425.36 -371.963,-1416.03 -365.587,-1404.21C-366.831,-1411.37 -369.79,-1428.44 -388.914,-1440.6C-344.393,-1434.19 -338.061,-1353.36 -338.061,-1348.23C-338.061,-1323.19 -349.71,-1303.8 -365.353,-1297.38C-385.914,-1288.94 -434.046,-1284.18 -448.915,-1303.2ZM-525.835,-1350.79C-526.768,-1356.7 -531.347,-1376.53 -542.397,-1377.85C-562.686,-1380.27 -557.23,-1327.93 -539.598,-1326.06C-529.933,-1325.04 -539.289,-1334.96 -534.233,-1347.06C-532.857,-1350.35 -529.664,-1351.38 -525.835,-1350.79ZM-390.313,-1408.64C-407.152,-1409.25 -403.025,-1366.63 -390.313,-1364.09C-387.98,-1363.62 -386.814,-1365.49 -386.814,-1369.69C-386.814,-1378.55 -382.615,-1382.99 -374.218,-1382.99C-375.617,-1396.52 -383.39,-1408.39 -390.313,-1408.64ZM-754.394,-1410.04C-754.394,-1410.04 -725.704,-1410.08 -711.006,-1379.71C-687.437,-1331.02 -707.96,-1304.43 -720.686,-1297.37C-765.98,-1272.23 -772.862,-1322.26 -786.818,-1322.1C-811.496,-1321.8 -776.51,-1261.76 -801.477,-1255.61C-825.047,-1249.82 -845.275,-1342.66 -795.924,-1351.57C-788.039,-1352.99 -776.869,-1353.77 -766.058,-1340.83C-759.564,-1333.05 -754.353,-1321.8 -742.963,-1321.86C-723.27,-1321.96 -726.098,-1378.42 -753.962,-1379.16C-769.272,-1379.56 -765.974,-1349.4 -785.641,-1355.56C-807.473,-1362.39 -784.953,-1407.01 -766.524,-1407.24C-754.767,-1407.38 -741.019,-1394.57 -736.665,-1390.21C-741.331,-1399.08 -747.24,-1405.68 -754.394,-1410.04ZM-601.163,-1494.84C-575.124,-1478.27 -633.299,-1408.66 -654.115,-1409.93C-658.056,-1410.17 -662.309,-1412.74 -664.146,-1416.23C-675.04,-1436.95 -634.577,-1439.69 -620.758,-1484.11C-618.58,-1491.11 -614.304,-1495.08 -607.928,-1496.01C-607.928,-1496.01 -603.496,-1482.83 -610.727,-1467.32C-604.351,-1476.02 -601.163,-1485.2 -601.163,-1494.84ZM-633.121,-1499.51C-620.267,-1488.06 -644.409,-1450.75 -665.079,-1448.65C-667.401,-1448.42 -669.972,-1450.13 -671.144,-1452.15C-679.53,-1466.61 -655.485,-1463.68 -645.018,-1492.98C-643.618,-1496.55 -641.71,-1500.33 -637.32,-1500.21C-637.32,-1500.21 -634.465,-1494.13 -638.953,-1482.94C-635.065,-1488.23 -632.867,-1492.14 -633.121,-1499.51ZM-471.775,-1487.72C-471.775,-1487.72 -465.762,-1487.1 -461.91,-1483.2C-458.832,-1480.08 -457.546,-1475.74 -457.546,-1472.32C-457.546,-1468.12 -458.984,-1464.62 -461.861,-1461.82C-464.738,-1459.03 -469.229,-1457.04 -472.941,-1456.92C-476.654,-1456.81 -481.495,-1458.56 -484.138,-1461.12C-486.782,-1463.69 -488.874,-1468.28 -488.804,-1472.32C-488.584,-1484.98 -477.84,-1487.25 -477.84,-1487.25C-475.512,-1485.49 -473.175,-1471.62 -473.175,-1471.62C-473.175,-1471.62 -469.646,-1481.71 -471.775,-1487.72ZM-400.11,-1487.02C-390.78,-1487.02 -386.294,-1479.96 -386.114,-1471.39C-386.026,-1467.2 -387.631,-1463.58 -390.663,-1460.55C-393.696,-1457.51 -397.311,-1456 -401.51,-1456C-405.709,-1456 -409.441,-1457.4 -412.707,-1460.2C-415.662,-1463.15 -417.139,-1466.88 -417.139,-1471.39C-417.139,-1478.39 -413.485,-1483.37 -406.175,-1486.32C-403.617,-1481.09 -402.204,-1475.88 -401.51,-1470.69C-399.443,-1475.78 -398.985,-1481.22 -400.11,-1487.02ZM-467.615,-1449.95C-459.279,-1449.95 -452.512,-1443.18 -452.512,-1434.85C-452.512,-1426.51 -459.279,-1419.75 -467.615,-1419.75C-475.951,-1419.75 -482.719,-1426.51 -482.719,-1434.85C-482.719,-1443.18 -475.951,-1449.95 -467.615,-1449.95Z" style="fill:white;"/>
        </g>
    </g>
</svg>
