<?xml version="1.0" encoding="UTF-8" standalone="no"?><!DOCTYPE svg PUBLIC "-//W3C//DTD SVG 1.1//EN" "http://www.w3.org/Graphics/SVG/1.1/DTD/svg11.dtd"><svg width="100%" height="100%" viewBox="0 0 463 136" version="1.1" xmlns="http://www.w3.org/2000/svg" xmlns:xlink="http://www.w3.org/1999/xlink" xml:space="preserve" xmlns:serif="http://www.serif.com/" style="fill-rule:evenodd;clip-rule:evenodd;stroke-linejoin:round;stroke-miterlimit:2;"><path d="M447.056,118.998c-6.231,6.232 -16.35,6.232 -22.581,0l-75.989,-75.988c-6.231,-6.232 -6.231,-16.35 0,-22.582c6.232,-6.232 16.35,-6.232 22.582,0l75.988,75.989c6.232,6.231 6.232,16.35 0,22.581Zm11.152,-46.635c-6.232,6.231 -16.35,6.231 -22.581,-0l-40.506,-40.505c-6.231,-6.232 -6.231,-16.35 0,-22.582c6.232,-6.231 16.35,-6.231 22.582,0l40.505,40.505c6.232,6.232 6.232,16.35 0,22.582Zm-58.294,58.294c-6.232,6.231 -16.35,6.231 -22.582,-0l-40.505,-40.505c-6.231,-6.232 -6.231,-16.35 0,-22.582c6.232,-6.231 16.35,-6.231 22.582,0l40.505,40.505c6.231,6.232 6.231,16.35 -0,22.582Zm-338.542,-31.845l-6.229,-0l-1.18,-0.197l-1.049,-0.459l-1.377,-0.983l-0,5.77l-0.197,3.737c0,0.568 -0.087,1.18 -0.262,1.836l-0.459,2.098l-0.459,2.426c-0,0.306 -0.044,0.547 -0.131,0.721l-1.18,2.951l-1.181,2.36c-2.098,4.59 -4.655,8.677 -7.671,12.262l-1.705,1.311l-2.164,0.262l-30.751,0c-1.661,0 -3.017,-0.437 -4.066,-1.311c-0.524,-0.612 -0.961,-1.639 -1.311,-3.082c-0,-1.573 0.765,-2.797 2.295,-3.672c8.349,-3.759 16.895,-9.07 25.637,-15.933c8.043,-6.207 12.065,-10.513 12.065,-12.917c-0,-1.049 -1.006,-2.939 -3.016,-5.671c-2.011,-2.732 -5.923,-6.699 -11.737,-11.901l10.622,-21.638c0.219,-0.349 0.612,-0.699 1.18,-1.049l1.115,0.656l3.803,3.868l2.819,2.623l2.361,2.098l2.426,1.771c1.267,0.612 2.59,1.136 3.967,1.573c1.377,0.438 2.786,0.656 4.229,0.656l13.31,0c1.355,0 2.295,-0.175 2.82,-0.524c0.218,-0.132 0.568,-0.656 1.049,-1.574c-0,-0.656 -0.394,-1.508 -1.18,-2.557l-4.59,-5.377l-5.77,-5.508l-0.656,-0.524c0,-0.306 -0.044,-0.503 -0.131,-0.59l0.787,-1.312l12.064,-17.572c0.525,-0.918 1.028,-1.464 1.508,-1.639l0.394,0.393c0.699,0.568 1.093,0.94 1.18,1.115c1.705,2.142 3.257,4.535 4.655,7.18c1.399,2.644 2.579,5.431 3.541,8.36c0.306,1.005 0.579,2.098 0.82,3.278c0.24,1.18 0.502,2.819 0.787,4.918c0.284,2.098 0.426,4.568 0.426,7.409c-0,11.627 -1.705,20.173 -5.115,25.637c-4.021,5.814 -11.452,8.721 -22.293,8.721Zm131.858,-0l-7.933,-0c-0,3.803 -0.263,7.343 -0.787,10.622l-0.459,2.819l-0.59,1.967c-0.35,1.487 -0.896,3.017 -1.64,4.59c-0.262,0.656 -0.502,1.312 -0.721,1.967c-0.349,0.568 -0.59,0.984 -0.721,1.246c-0.525,1.093 -1.137,2.12 -1.836,3.082c-0.524,0.918 -1.246,1.923 -2.164,3.016c-0.699,0.962 -1.617,2.033 -2.754,3.213c-0.218,0.306 -0.786,0.743 -1.704,1.311l-2.164,0.262l-30.621,0c-1.53,0 -2.885,-0.393 -4.065,-1.18c-0.481,-0.568 -0.962,-1.639 -1.442,-3.213c-0,-1.573 0.765,-2.797 2.295,-3.672l6.622,-3.081c1.661,-0.831 3.803,-2.011 6.426,-3.541c4.021,-2.273 7.999,-4.852 11.933,-7.737c7.868,-5.464 11.802,-9.18 11.802,-11.147l-2.426,0l-2.426,0.131c-3.234,0 -6.065,-0.196 -8.491,-0.59c-2.426,-0.393 -4.426,-1.049 -5.999,-1.967c-4.459,-2.71 -6.688,-7.715 -6.688,-15.015l0.065,-3.475l0.066,-1.967l-0,-1.377c0.131,-0.525 0.218,-0.896 0.262,-1.115c0,-1.136 0.131,-2.295 0.394,-3.475l0.655,-2.295c0.656,-3.103 1.454,-5.868 2.394,-8.294c0.939,-2.426 2.065,-4.535 3.376,-6.328c3.279,-4.677 7.257,-7.015 11.934,-7.015c4.327,-0 8.371,2.163 12.13,6.491c2.71,3.497 4.896,8.808 6.557,15.933l7.802,0c0.875,0 1.771,-0.197 2.689,-0.59c0.83,-0.437 1.617,-1.137 2.36,-2.098c1.268,-1.749 1.902,-4.24 1.902,-7.475l-2.033,-43.8c0,-0.568 0.044,-0.918 0.131,-1.049l0.59,-0.721l19.868,-12.72l1.049,-0.525l0.262,1.574l-0,59.077c-0,2.535 0.623,4.557 1.869,6.065c1.245,1.508 2.786,2.262 4.622,2.262l3.738,0c4.589,0 7.802,-1.333 9.638,-4l1.049,-2.622l1.64,-5.18c0.874,-2.754 2.404,-4.131 4.589,-4.131c1.793,-0 3.082,1.158 3.869,3.475l1.246,5.377l0.459,1.836l0.59,1.114c1.661,2.754 4.743,4.131 9.245,4.131l15.999,0c1.355,0 2.295,-0.175 2.819,-0.524c0.219,-0.132 0.568,-0.656 1.049,-1.574c0,-0.656 -0.393,-1.508 -1.18,-2.557l-4.59,-5.377l-5.77,-5.508l-0.656,-0.524c0,-0.306 -0.043,-0.503 -0.131,-0.59l0.787,-1.312l12.065,-17.572c0.524,-0.918 1.027,-1.464 1.508,-1.639l0.393,0.393c0.7,0.568 1.093,0.94 1.18,1.115c1.705,2.142 3.257,4.535 4.656,7.18c1.399,2.644 2.579,5.431 3.541,8.36c0.306,1.005 0.579,2.098 0.819,3.278c0.241,1.18 0.503,2.819 0.787,4.918c0.284,2.098 0.426,4.568 0.426,7.409c0,11.627 -1.705,20.173 -5.114,25.637c-4.022,5.814 -11.453,8.721 -22.293,8.721l-6.295,-0c-3.322,-0 -6.043,-0.656 -8.163,-1.967c-2.12,-1.312 -4.273,-3.563 -6.459,-6.754c-1.311,2.623 -3.3,4.732 -5.967,6.328c-2.666,1.595 -5.813,2.393 -9.441,2.393l-6.885,-0c-1.486,-0 -3.071,-0.273 -4.754,-0.82c-1.683,-0.546 -3.267,-1.431 -4.754,-2.655l-1.311,-1.049l-1.967,-1.902c-0.962,-1.093 -1.748,-2.229 -2.36,-3.41c-1.749,2.361 -4,4.568 -6.754,6.623c-1.486,1.005 -3.082,1.858 -4.787,2.557l-2.426,0.459l-2.426,0.197Zm-21.309,-24.326c-0,-0.787 -0.896,-1.989 -2.689,-3.606c-0.743,-0.481 -1.595,-0.94 -2.557,-1.377c-0.962,-0.437 -1.945,-0.656 -2.95,-0.656l-1.508,-0l-1.115,0.328l-1.705,0.983c-0.787,0.525 -1.377,1.618 -1.77,3.279c-0,0.349 0.721,0.983 2.163,1.901l2.427,0.394l2.819,0.131l4.721,-0.394c1.311,-0.262 2.033,-0.59 2.164,-0.983Zm-130.547,-41.505c-0.131,0.525 -0.306,0.896 -0.525,1.115l-8.786,8.72l-0.918,0.525l-0.918,-0.525l-8.983,-8.589l-0.59,-1.049l0.852,-1.377l8.197,-8.327l1.049,-0.656l1.049,0.656l9.179,8.72l0.394,0.787Zm52.782,85.698l-0.524,0.918l-7.672,7.671l-0.918,0.525l-0.852,-0.525l-7.344,-7.081l-7.278,7.081l-0.393,0.132l-0.394,0.262l-0.786,-0.394l-7.803,-7.671l-0.131,-0.197l-0.394,-0.721l0.656,-1.049l7.081,-7.278l1.115,-0.656l0.918,0.656l7.409,7.016l6.819,-7.016l1.115,-0.656l1.049,0.656l7.934,7.671l0.393,0.656Zm34.227,-53.963l-0.065,3.279l-0.066,1.967l-0.393,2.032c-0.175,1.924 -0.569,4.306 -1.181,7.147l-0.918,4.852l-1.049,3.672c-0.655,2.229 -1.398,4.109 -2.229,5.639c-1.705,3.847 -3.41,5.77 -5.114,5.77c-1.574,0 -3.082,-2.317 -4.525,-6.95l-4.196,-22.425l-4.786,-30.358l-2.295,-15.474l19.736,-21.441l1.18,-1.115l0.852,-0.655l0.394,-0.263c0.306,0.263 0.612,0.831 0.918,1.705l1.114,5.901l0.918,5.967c0.525,4.022 0.787,8.174 0.787,12.458l0.394,18.818l0.524,19.474Zm134.678,53.963l-0.525,0.918l-7.671,7.671l-0.918,0.525l-0.853,-0.525l-7.343,-7.081l-7.278,7.081l-0.394,0.132l-0.393,0.262l-0.787,-0.394l-7.803,-7.671l-0.131,-0.197l-0.393,-0.721l0.656,-1.049l7.081,-7.278l1.115,-0.656l0.918,0.656l7.409,7.016l6.819,-7.016l1.115,-0.656l1.049,0.656l7.933,7.671l0.394,0.656Zm35.8,-104.188l-0.524,0.786l-7.672,7.803l-0.787,0.394l-0.918,-0.394l-7.409,-7.278l-7.147,7.278l-0.918,0.394l-0.787,-0.394l-7.802,-7.671l-0.525,-0.918l0.656,-1.115l7.278,-7.213l0.918,-0.655l1.049,0.655l7.278,6.951l6.95,-6.951l0.984,-0.655l1.049,0.655l7.934,7.541l0.393,0.787Z" style="fill:#fff;"/></svg>