<?xml version="1.0" encoding="UTF-8" standalone="no"?><!DOCTYPE svg PUBLIC "-//W3C//DTD SVG 1.1//EN" "http://www.w3.org/Graphics/SVG/1.1/DTD/svg11.dtd"><svg width="100%" height="100%" viewBox="0 0 571 172" version="1.1" xmlns="http://www.w3.org/2000/svg" xmlns:xlink="http://www.w3.org/1999/xlink" xml:space="preserve" xmlns:serif="http://www.serif.com/" style="fill-rule:evenodd;clip-rule:evenodd;stroke-linejoin:round;stroke-miterlimit:2;"><path d="M341.366,0l36.322,0l-0,17.581l30.15,-0l0,21.637l-36.498,0l0,-17.58l-29.974,-0l-0,-21.638Zm29.988,154.885l-0,-109.586l7.287,-0l-0,109.586l-7.287,-0Zm-97.264,-109.566l68.422,0l-0,27.265l-41.155,-0l0,82.301l-27.267,-0l-0,-109.566Zm68.422,68.415l-27.268,0l0,-27.337l27.268,0l-0,27.337Zm-0,41.151l-27.268,-0l0,-27.265l27.268,-0l-0,27.265Zm-143.704,-109.638l13.598,-0c30.279,-0 54.824,24.543 54.824,54.819c-0,30.275 -24.545,54.819 -54.824,54.819l-13.598,-0l-0,-27.337l13.634,-0c7.299,-0 14.299,-2.9 19.46,-8.06c5.161,-5.161 8.06,-12.16 8.06,-19.458c0,-7.299 -2.899,-14.298 -8.06,-19.459c-5.161,-5.16 -12.161,-8.059 -19.46,-8.059l-13.634,-0l-0,-27.265Zm-102.985,0.072l96.125,0l-55.196,46.652l55.196,62.914l-96.125,-0l0,-109.566Zm7.287,75.088l0,27.191l72.752,0l-44.676,-50.922l-28.076,23.731Zm-34.688,-33.938l20.541,0l0,27.265l-20.541,0l-0,41.151l-68.422,-0l-0,-27.337l41.082,-0l0,-13.814l-41.082,0l-0,-68.487l68.422,-0l-0,41.222Zm-27.34,0l0,-13.885l-13.814,-0l-0,13.885l13.814,0Zm503.133,21.542c-3.484,21.822 -22.407,38.522 -45.206,38.522c-25.266,-0 -45.781,-20.515 -45.781,-45.781c-0,-22.799 16.699,-41.722 38.522,-45.207c2.365,-0.376 4.786,-0.574 7.259,-0.574c25.266,-0 45.781,20.515 45.781,45.781c-0,2.472 -0.199,4.893 -0.575,7.259Zm-65.416,-36.574c-9.299,6.429 -15.398,17.168 -15.398,29.315c0,19.65 15.957,35.607 35.608,35.607c12.147,0 22.88,-6.094 29.305,-15.387c-4.344,1.724 -9.085,2.67 -14.045,2.67c-21.054,0 -38.151,-17.096 -38.151,-38.151c0,-4.959 0.946,-9.695 2.681,-14.054Zm15.123,-36.814c-0,-2.807 2.279,-5.086 5.087,-5.086c2.808,-0 5.086,2.279 5.086,5.086l0,10.174c0,2.808 -2.278,5.087 -5.086,5.087c-2.808,-0 -5.087,-2.279 -5.087,-5.087l-0,-10.174Zm48.248,15.775c1.989,-1.989 5.209,-1.989 7.193,-0c1.989,1.983 1.989,5.203 -0,7.192l-7.193,7.193c-1.984,1.984 -5.209,1.984 -7.193,0c-1.983,-1.984 -1.983,-5.209 0,-7.193l7.193,-7.192Zm22.967,45.267c2.808,-0 5.087,2.279 5.087,5.087c-0,2.808 -2.279,5.087 -5.087,5.087l-10.174,-0c-2.808,-0 -5.086,-2.279 -5.086,-5.087c-0,-2.808 2.278,-5.087 5.086,-5.087l10.174,-0Zm-15.774,48.248c1.989,1.989 1.989,5.209 -0,7.193c-1.984,1.989 -5.204,1.989 -7.193,-0l-7.193,-7.193c-1.983,-1.984 -1.983,-5.209 0,-7.193c1.984,-1.983 5.209,-1.983 7.193,0l7.193,7.193Zm-45.268,22.967c0,2.808 -2.278,5.087 -5.086,5.087c-2.808,-0 -5.087,-2.279 -5.087,-5.087l-0,-10.174c-0,-2.807 2.279,-5.086 5.087,-5.086c2.808,-0 5.086,2.279 5.086,5.086l0,10.174Zm-48.248,-15.774c-1.989,1.989 -5.209,1.989 -7.192,-0c-1.989,-1.984 -1.989,-5.204 -0,-7.193l7.192,-7.193c1.984,-1.983 5.209,-1.983 7.193,0c1.984,1.984 1.984,5.209 -0,7.193l-7.193,7.193Zm-22.967,-45.267c-2.808,-0 -5.086,-2.279 -5.086,-5.087c-0,-2.808 2.278,-5.087 5.086,-5.087l10.174,-0c2.808,-0 5.087,2.279 5.087,5.087c-0,2.808 -2.279,5.087 -5.087,5.087l-10.174,-0Zm15.775,-48.249c-1.989,-1.989 -1.989,-5.209 -0,-7.192c1.983,-1.989 5.203,-1.989 7.192,-0l7.193,7.192c1.984,1.984 1.984,5.209 -0,7.193c-1.984,1.984 -5.209,1.984 -7.193,0l-7.192,-7.193Z" style="fill:#fff;"/></svg>