<?xml version="1.0" encoding="UTF-8" standalone="no"?><!DOCTYPE svg PUBLIC "-//W3C//DTD SVG 1.1//EN" "http://www.w3.org/Graphics/SVG/1.1/DTD/svg11.dtd"><svg width="100%" height="100%" viewBox="0 0 574 152" version="1.1" xmlns="http://www.w3.org/2000/svg" xmlns:xlink="http://www.w3.org/1999/xlink" xml:space="preserve" xmlns:serif="http://www.serif.com/" style="fill-rule:evenodd;clip-rule:evenodd;stroke-linejoin:round;stroke-miterlimit:2;"><g><path d="M573.843,113.498l-0,-75.665l-65.528,-37.833l-65.527,37.833l-0,75.665l65.527,37.833l65.528,-37.833Zm-104.306,-60.207l38.778,-22.375l38.779,22.375l0,44.749l-38.779,22.374l-38.778,-22.374l-0,-44.749Zm38.778,43.833l-18.591,-10.729l0,-21.459l18.591,-10.729l18.592,10.729l-0,21.459l-18.592,10.729Z" style="fill:#0023ff;fill-rule:nonzero;"/><g><path d="M161.178,87.048c0,17.133 -5.003,23.098 -23.843,23.098l-65.461,-0c-0,12.186 -6.46,35.019 -41.759,35.019c-0.58,0 -30.115,0.26 -30.115,0.26c-0,0 0.053,-3.839 0.053,-10.144c0.186,-0 37.087,-0.266 37.272,-0.266c21.106,-0 24.18,-18.56 24.18,-25.017l-0,-68.188l10.369,0l-0,58.648l34.327,0l0,-58.648l10.166,0l-0,58.648l6.705,0c5.606,0 22.617,-0.284 23.966,-0.851c2.838,-1.278 4.257,-4.471 4.257,-9.58l0,-48.217l9.883,0l0,45.238Zm80.668,-28.207l0,63.439c0,15.257 -7.486,22.885 -22.459,22.885l-49.282,0l-0,-9.627l53.677,0c4.689,0 8.196,-3.294 8.196,-7.983l0,-17.409l-43.139,-0c-12.419,-0 -18.628,-5.677 -18.628,-17.031l0,-34.274c0,-11.425 6.209,-17.137 18.628,-17.137l34.38,-0c12.418,-0 18.627,5.712 18.627,17.137Zm-10.081,36.019l0,-37.175c0,-3.69 -2.058,-5.535 -6.173,-5.535l-38.233,-0c-4.187,-0 -6.28,1.845 -6.28,5.535l0,37.175c0,3.832 2.093,5.748 6.28,5.748l38.233,0c4.115,0 6.173,-1.916 6.173,-5.748Z" style="fill:#0023ff;"/><path d="M324.019,20.415c0,3.194 -1.153,5.943 -3.459,8.25c-2.306,2.306 -5.056,3.459 -8.249,3.459c-3.194,0 -5.943,-1.189 -8.249,-3.566c-2.307,-2.377 -3.46,-5.091 -3.46,-8.143c0,-3.122 1.153,-5.836 3.46,-8.142c2.306,-2.307 5.055,-3.46 8.249,-3.46c2.838,0 5.499,1.153 7.983,3.46c2.483,2.306 3.725,5.02 3.725,8.142Zm24.269,89.731l-98.778,-0l0,-22.885l27.143,-0l-0,-28.42c-0,-11.496 6.209,-17.244 18.627,-17.244l34.274,0c12.489,0 18.734,5.748 18.734,17.244l-0,51.305Zm-23.843,-28.527l0,-11.602c0,-3.69 -2.022,-5.535 -6.067,-5.535l-12.028,0c-4.045,0 -6.067,1.845 -6.067,5.535l-0,11.602c-0,3.761 2.022,5.642 6.067,5.642l12.028,-0c4.045,-0 6.067,-1.881 6.067,-5.642Zm80.363,-61.097c0,3.193 -1.153,5.943 -3.459,8.249c-2.306,2.306 -5.056,3.459 -8.249,3.459c-3.193,0 -5.943,-1.188 -8.249,-3.565c-2.307,-2.378 -3.46,-5.092 -3.46,-8.143c0,-3.122 1.153,-5.837 3.46,-8.143c2.306,-2.306 5.056,-3.459 8.249,-3.459c2.838,-0 5.499,1.153 7.983,3.459c2.484,2.306 3.725,5.021 3.725,8.143Zm1.065,66.526c-0,15.398 -7.912,23.098 -23.737,23.098l-26.184,-0l-0,-22.992l11.921,0.107c5.606,-0 9.083,-0.284 10.431,-0.852c2.839,-1.277 4.258,-4.47 4.258,-9.58l0,-35.019l23.311,0l-0,45.238Z" style="fill:#435466;"/></g></g></svg>