<?xml version="1.0" encoding="UTF-8" standalone="no"?><!DOCTYPE svg PUBLIC "-//W3C//DTD SVG 1.1//EN" "http://www.w3.org/Graphics/SVG/1.1/DTD/svg11.dtd"><svg width="100%" height="100%" viewBox="0 0 581 156" version="1.1" xmlns="http://www.w3.org/2000/svg" xmlns:xlink="http://www.w3.org/1999/xlink" xml:space="preserve" xmlns:serif="http://www.serif.com/" style="fill-rule:evenodd;clip-rule:evenodd;stroke-linejoin:round;stroke-miterlimit:2;"><path d="M136.378,48.194l0,89.605l-136.378,0l-0,-74.565l28.639,-0l0,44.802l79.175,-0l0,-89.526l72.281,-0l-0,29.684l-43.717,0Zm-43.111,44.803l-50.156,-0l-0,-74.487l50.156,-0l0,29.684l-21.517,0l-0,15.04l21.517,-0l0,29.763Zm101.375,-74.487l28.563,-0l0,119.368l-71.674,-0l0,-74.566l28.564,0l-0,44.803l14.547,-0l-0,-89.605Zm43.716,-0l71.675,-0l-0,119.289l-71.675,0l0,-29.763l43.035,-0l0,-15.039l-43.035,-0l0,-74.487Zm43.035,44.724l0,-15.04l-14.471,0l0,15.04l14.471,-0Zm43.793,-44.724l71.674,-0l0,119.289l-71.674,0l-0,-29.763l43.035,-0l-0,-15.039l-43.035,-0l-0,-74.487Zm43.035,44.724l-0,-15.04l-14.472,0l0,15.04l14.472,-0Zm142.639,92.495c-3.114,0 -6.228,-0.838 -8.982,-2.395l-51.86,-29.942c-5.51,-3.234 -8.983,-9.223 -8.983,-15.57l0,-59.885c0,-6.347 3.473,-12.336 8.983,-15.57l51.74,-29.942c5.509,-3.233 12.456,-3.233 17.965,0l51.86,29.942c5.509,3.234 8.982,9.223 8.982,15.57l0,59.765c0,6.467 -3.473,12.456 -8.982,15.69l-51.74,29.942c-2.755,1.557 -5.869,2.395 -8.983,2.395Zm0,-148.872c-1.916,-0 -3.832,0.479 -5.629,1.557l-51.74,29.942c-3.473,2.036 -5.629,5.749 -5.629,9.701l-0,59.765c-0,3.952 2.156,7.665 5.629,9.701l51.74,29.942c3.473,2.036 7.785,2.036 11.139,-0l51.74,-29.942c3.473,-2.036 5.629,-5.749 5.629,-9.701l-0,-59.885c-0,-3.952 -2.156,-7.665 -5.629,-9.701l-51.74,-29.942c-1.677,-0.958 -3.594,-1.437 -5.51,-1.437Zm7.785,118.451c-1.557,-0 -3.114,-0.24 -4.551,-0.599l-29.463,-7.905c-6.228,-1.677 -11.019,-6.587 -12.696,-12.695l-7.904,-29.463c-1.677,-6.228 0.119,-12.935 4.671,-17.367l21.558,-21.558c4.551,-4.551 11.258,-6.348 17.366,-4.671l29.463,7.905c6.228,1.676 11.019,6.587 12.696,12.695l7.905,29.463c1.676,6.228 -0.12,12.935 -4.671,17.367l-21.559,21.558c-3.473,3.354 -8.144,5.27 -12.815,5.27Zm-15.69,-88.15c-2.994,0 -5.868,1.198 -7.904,3.354l-21.559,21.558c-2.874,2.874 -3.952,6.947 -2.874,10.899l7.905,29.463c1.078,3.833 4.072,6.827 7.904,7.905l29.463,7.904c3.833,0.959 8.025,-0.119 10.78,-2.874l21.558,-21.558c2.874,-2.875 3.952,-6.947 2.874,-10.899l-7.904,-29.463c-1.078,-3.833 -4.072,-6.827 -7.905,-7.905l-29.463,-7.905c-0.958,-0.359 -1.916,-0.479 -2.875,-0.479Z" style="fill:#fff;"/></svg>