<?xml version="1.0" encoding="UTF-8" standalone="no"?><!DOCTYPE svg PUBLIC "-//W3C//DTD SVG 1.1//EN" "http://www.w3.org/Graphics/SVG/1.1/DTD/svg11.dtd"><svg width="100%" height="100%" viewBox="0 0 678 153" version="1.1" xmlns="http://www.w3.org/2000/svg" xmlns:xlink="http://www.w3.org/1999/xlink" xml:space="preserve" xmlns:serif="http://www.serif.com/" style="fill-rule:evenodd;clip-rule:evenodd;stroke-linejoin:round;stroke-miterlimit:2;"><path d="M667.638,99.734l-43.446,43.447c-12.879,12.878 -33.749,12.878 -46.628,-0l-43.447,-43.447c-12.879,-12.879 -12.879,-33.749 0,-46.628l43.447,-43.447c12.879,-12.879 33.749,-12.879 46.628,0l43.446,43.447c12.879,12.879 12.879,33.749 0,46.628Zm-64.549,-25.68l-11.87,-11.56c-3.026,-2.949 -7.836,-2.871 -10.785,0.077c-2.948,3.026 -2.87,7.836 0.078,10.784l12.879,12.569l3.957,3.879c3.801,3.724 9.93,3.646 13.654,-0.155l3.88,-3.957l6.361,-6.517c2.949,-3.026 2.871,-7.836 -0.077,-10.784c-3.026,-2.948 -7.836,-2.871 -10.784,0.078l-5.431,5.508c-0.466,0.621 -1.319,0.621 -1.862,0.078Zm-548.832,-33.715c-0,2.938 -1.022,5.428 -3.066,7.472c-2.044,2.044 -4.534,3.066 -7.472,3.066c-2.555,-0 -4.982,-1.054 -7.281,-3.162c-2.044,-2.171 -3.066,-4.63 -3.066,-7.376c-0,-2.874 1.022,-5.349 3.066,-7.425c2.043,-2.076 4.47,-3.114 7.281,-3.114c2.618,0 5.029,1.038 7.233,3.114c2.203,2.076 3.305,4.551 3.305,7.425Zm-23.951,-0c0,2.938 -1.022,5.428 -3.065,7.472c-2.044,2.044 -4.503,3.066 -7.377,3.066c-2.81,-0 -5.269,-1.022 -7.377,-3.066c-2.044,-2.171 -3.066,-4.662 -3.066,-7.472c0,-2.874 1.038,-5.349 3.114,-7.425c2.076,-2.076 4.519,-3.114 7.329,-3.114c2.555,0 4.934,1.038 7.137,3.114c2.204,2.076 3.305,4.551 3.305,7.425Zm30.951,80.282l-61.257,-0l0,-8.177l52.649,0l-0,-53.328l8.608,-0l0,61.505Zm39.626,-0l-32.632,-0l-0,-8.177l23.855,0l-0,-53.328l8.777,-0l0,61.505Zm4.797,21.364c0,2.874 -1.022,5.349 -3.066,7.424c-2.043,2.076 -4.534,3.114 -7.472,3.114c-2.427,-0 -4.758,-1.038 -6.994,-3.114c-2.235,-2.075 -3.353,-4.55 -3.353,-7.424c0,-2.938 1.022,-5.429 3.066,-7.473c2.044,-2.044 4.471,-3.066 7.281,-3.066c2.682,0 5.109,1.054 7.281,3.162c2.171,2.108 3.257,4.567 3.257,7.377Zm-23.95,-0c-0,2.874 -1.022,5.349 -3.066,7.424c-2.044,2.076 -4.503,3.114 -7.377,3.114c-2.491,-0 -4.854,-1.038 -7.089,-3.114c-2.236,-2.075 -3.353,-4.55 -3.353,-7.424c-0,-2.874 1.054,-5.365 3.161,-7.473l1.533,-1.341l1.82,-0.958c1.214,-0.511 2.523,-0.767 3.928,-0.767c2.619,0 5.014,1.054 7.185,3.162c2.172,2.108 3.258,4.567 3.258,7.377Zm88.862,-21.364l-63.29,-0l-0,-8.177l48.405,0l-29.445,-51.515l44.33,-46.88l-0,10.925l-34.355,36.879l34.355,58.768Zm60.027,-80.282c-0,2.938 -1.022,5.428 -3.066,7.472c-2.044,2.044 -4.535,3.066 -7.473,3.066c-2.554,-0 -4.981,-1.054 -7.281,-3.162c-2.043,-2.171 -3.065,-4.63 -3.065,-7.376c-0,-2.874 1.022,-5.349 3.065,-7.425c2.044,-2.076 4.471,-3.114 7.281,-3.114c2.619,0 5.03,1.038 7.233,3.114c2.204,2.076 3.306,4.551 3.306,7.425Zm-23.951,-0c0,2.938 -1.022,5.428 -3.066,7.472c-2.043,2.044 -4.502,3.066 -7.376,3.066c-2.811,-0 -5.269,-1.022 -7.377,-3.066c-2.044,-2.171 -3.066,-4.662 -3.066,-7.472c0,-2.874 1.038,-5.349 3.114,-7.425c2.076,-2.076 4.518,-3.114 7.329,-3.114c2.554,0 4.933,1.038 7.137,3.114c2.203,2.076 3.305,4.551 3.305,7.425Zm42.517,80.282l-71.625,-0l-0,-20.598l50.645,0l-0,-40.907l20.98,-0l0,61.505Zm132.878,-0l-125.788,-0l-0,-20.598l24.333,0l0,-41.099l21.077,0l-0,41.099l18.969,0l-0,-41.099l20.98,0l0,41.099l19.352,0l0,-41.099l21.077,0l-0,61.697Zm52.691,-0l-44.835,-0l-0,-20.598l23.854,0l0,-40.907l20.981,-0l0,61.505Zm11.4,21.364c0,2.874 -1.021,5.349 -3.065,7.424c-2.044,2.076 -4.535,3.114 -7.473,3.114c-2.427,-0 -4.758,-1.038 -6.993,-3.114c-2.236,-2.075 -3.353,-4.55 -3.353,-7.424c-0,-2.938 1.021,-5.429 3.065,-7.473c2.044,-2.044 4.471,-3.066 7.281,-3.066c2.683,0 5.11,1.054 7.281,3.162c2.172,2.108 3.257,4.567 3.257,7.377Zm-23.95,-0c-0,2.874 -1.022,5.349 -3.066,7.424c-2.044,2.076 -4.502,3.114 -7.376,3.114c-2.491,-0 -4.854,-1.038 -7.09,-3.114c-2.235,-2.075 -3.353,-4.55 -3.353,-7.424c0,-2.874 1.054,-5.365 3.162,-7.473l1.532,-1.341l1.821,-0.958c1.213,-0.511 2.522,-0.767 3.928,-0.767c2.618,0 5.013,1.054 7.185,3.162c2.171,2.108 3.257,4.567 3.257,7.377Zm64.954,-41.77c-0,13.604 -7.058,20.406 -21.172,20.406l-23.951,-0l-0,-20.598l14.562,0c6.131,0 9.197,-3.097 9.197,-9.292l-0,-73.573l21.364,0l-0,83.057Z" style="fill:#fff;"/></svg>