<?xml version="1.0" encoding="UTF-8" standalone="no"?><!DOCTYPE svg PUBLIC "-//W3C//DTD SVG 1.1//EN" "http://www.w3.org/Graphics/SVG/1.1/DTD/svg11.dtd"><svg width="100%" height="100%" viewBox="0 0 353 128" version="1.1" xmlns="http://www.w3.org/2000/svg" xmlns:xlink="http://www.w3.org/1999/xlink" xml:space="preserve" xmlns:serif="http://www.serif.com/" style="fill-rule:evenodd;clip-rule:evenodd;stroke-linejoin:round;stroke-miterlimit:2;"><path d="M58.984,106.034c-0.916,1.217 -1.929,2.395 -3.041,3.534c-6.311,6.468 -14.057,9.702 -23.238,9.702c-8.867,0 -16.535,-3.156 -23.003,-9.467c-6.468,-6.312 -9.702,-14.058 -9.702,-23.238c0,-6.573 1.773,-12.467 5.32,-17.683c1.01,-1.514 2.654,-3.223 4.932,-5.127c-1.477,1.273 -2.86,3.347 -4.149,6.222c-1.148,2.921 -1.721,5.53 -1.721,7.825c-0,5.111 1.903,9.623 5.711,13.536c3.808,3.912 8.32,5.868 13.536,5.868c5.425,-0 10.119,-1.904 14.084,-5.712c3.964,-3.808 5.946,-8.424 5.946,-13.849l0,-55.708c0,-4.382 -0.313,-7.355 -0.939,-8.92c-0.939,-2.817 -3.182,-4.381 -6.729,-4.694l-1.721,-0l-1.252,0.313l3.443,-1.252c5.425,-1.356 9.65,-2.035 12.675,-2.035c10.85,0 16.274,4.695 16.274,14.084l0,66.975c0,6.772 -1.798,12.831 -5.393,18.177c-1.459,-1.892 -2.323,-4.091 -2.591,-6.597c-0,2.912 0.519,5.594 1.558,8.046Zm1.033,-1.449c0.241,0.313 0.499,0.618 0.773,0.914c1.93,2.087 4.304,3.13 7.12,3.13c2.817,0 5.295,-1.147 7.433,-3.443c2.139,-2.295 3.208,-4.746 3.208,-7.354l0,-48.511c0,-9.493 -2.451,-14.24 -7.354,-14.24l-1.878,0l-1.252,0.313l3.599,-1.564l5.946,-1.252l6.416,-0.47c10.85,0 16.275,4.59 16.275,13.771l-0,18.934l10.738,0l0,-13.301c0,-4.277 -0.313,-7.667 -0.939,-10.171c-1.147,-3.964 -3.547,-5.947 -7.198,-5.947l-1.721,0l-1.096,0.313l3.6,-1.252c4.068,-1.251 8.189,-1.877 12.362,-1.877c4.486,-0 8.137,0.886 10.954,2.66c3.442,2.399 5.164,6.155 5.164,11.267l-0,18.308l6.609,0l-0.469,-5.633c-0,-7.511 2.608,-13.901 7.824,-19.169c5.216,-5.269 11.58,-7.903 19.091,-7.903l39.903,0c-5.633,0.626 -9.389,3.964 -11.267,10.015l-1.251,4.851l-0.157,5.321l0,2.347l0.157,1.408l0.156,3.13c0,3.86 -0.678,7.355 -2.034,10.484c-0.626,1.565 -1.409,3.078 -2.347,4.539c-0.939,1.46 -2.139,2.921 -3.6,4.381c-5.32,5.321 -11.84,7.981 -19.56,7.981l-64.919,-0l-0,11.423c-0,5.947 -2.087,10.98 -6.26,15.101c-4.173,4.121 -9.284,6.181 -15.335,6.181c-5.216,0 -10.067,-2.034 -14.553,-6.103c-2.328,-2.111 -4.051,-4.488 -5.171,-7.133c0.359,-0.477 0.703,-0.96 1.033,-1.449Zm106.233,-52.768c-3.953,-0 -7.163,3.209 -7.163,7.163c-0,3.953 3.21,7.163 7.163,7.163c3.954,0 7.164,-3.21 7.164,-7.163c-0,-3.954 -3.21,-7.163 -7.164,-7.163Zm-66.26,-30.193l-12.988,3.442l-2.504,0.313c-4.59,0 -7.824,-2.451 -9.702,-7.354l-0.313,-2.504c-0,-1.878 0.626,-3.912 1.878,-6.103c2.086,-2.608 4.798,-3.912 8.137,-3.912c5.007,-0 8.137,2.347 9.389,7.042l1.095,3.599c1.148,3.651 2.817,5.477 5.008,5.477Zm28.861,84.429l-12.988,3.442l-2.504,0.313c-4.59,0 -7.824,-2.451 -9.702,-7.355l-0.313,-2.503c0,-1.878 0.626,-3.912 1.878,-6.103c2.087,-2.608 4.799,-3.912 8.137,-3.912c5.008,-0 8.138,2.347 9.389,7.041l1.096,3.6c1.147,3.651 2.816,5.477 5.007,5.477Zm24.203,-0l-12.988,3.442l-2.504,0.313c-4.59,0 -7.824,-2.451 -9.702,-7.355l-0.313,-2.503c0,-1.878 0.626,-3.912 1.878,-6.103c2.087,-2.608 4.799,-3.912 8.137,-3.912c5.008,-0 8.138,2.347 9.389,7.041l1.096,3.6c1.147,3.651 2.817,5.477 5.007,5.477Zm135.772,-106.053c35.267,0 63.899,28.632 63.899,63.899c-0,35.266 -28.632,63.898 -63.899,63.898c-35.267,0 -63.899,-28.632 -63.899,-63.898c0,-35.267 28.632,-63.899 63.899,-63.899Zm-35.834,68.556c2.796,0 5.062,-2.266 5.062,-5.061c-0,-2.795 -2.266,-5.062 -5.062,-5.062c-2.795,0 -5.061,2.267 -5.061,5.062c0,2.795 2.266,5.061 5.061,5.061Zm8.402,-4.454c0.608,2.531 2.126,3.948 3.948,4.252c1.013,0.202 1.924,0.911 2.328,1.822l13.261,31.886c0.506,1.114 1.62,1.822 2.834,1.822l1.62,0c1.721,0 3.037,-1.316 3.037,-3.036l0,-74.807c0,-1.721 -1.316,-3.037 -3.037,-3.037l-1.721,-0c-1.214,-0 -2.328,0.708 -2.834,1.822l-13.261,31.988c-0.405,1.012 -1.316,1.619 -2.328,1.822c-1.822,0.405 -3.341,1.721 -3.948,4.251c0,0.405 0,0.81 0.101,1.215Zm11.237,-1.822l6.478,-15.69c0.506,-1.316 2.531,-0.911 2.531,0.506l-0,32.696c-0,1.418 -2.025,1.822 -2.531,0.507l-6.478,-15.691c-0.304,-0.708 -0.304,-1.518 -0,-2.328Zm39.78,28.242c1.62,-0 3.037,-1.417 3.037,-3.138l-0,-47.881c-0,-1.721 -1.316,-3.037 -3.037,-3.037l-0.709,0c-1.721,0 -3.037,1.316 -3.037,3.037l0,47.982c0,1.721 1.316,3.037 3.037,3.037l0.709,-0Zm-13.563,-16.905c1.721,0 3.037,-1.316 3.037,-3.036l-0,-14.172c-0,-1.721 -1.316,-3.037 -3.037,-3.037l-0.709,0c-1.721,0 -3.037,1.316 -3.037,3.037l0,14.172c0,1.72 1.316,3.036 3.037,3.036l0.709,0Zm27.03,3.341c1.72,0 3.036,-1.316 3.036,-2.936l0,-20.954c0,-1.721 -1.316,-3.036 -3.036,-3.036l-0.709,-0c-1.721,-0 -3.037,1.315 -3.037,3.036l0,20.853c0,1.721 1.316,3.037 3.037,3.037l0.709,0Z" style="fill:#fff;"/></svg>