<?xml version="1.0" encoding="UTF-8" standalone="no"?><!DOCTYPE svg PUBLIC "-//W3C//DTD SVG 1.1//EN" "http://www.w3.org/Graphics/SVG/1.1/DTD/svg11.dtd"><svg width="100%" height="100%" viewBox="0 0 697 144" version="1.1" xmlns="http://www.w3.org/2000/svg" xmlns:xlink="http://www.w3.org/1999/xlink" xml:space="preserve" xmlns:serif="http://www.serif.com/" style="fill-rule:evenodd;clip-rule:evenodd;stroke-linejoin:round;stroke-miterlimit:2;"><g><path d="M64.38,2.785c20.862,9.199 41.35,21.027 59.747,34.495c2.465,22.666 2.465,46.323 -0,68.989c-18.397,13.468 -38.885,25.296 -59.747,34.495c-20.861,-9.199 -41.349,-21.027 -59.746,-34.495c-2.465,-22.666 -2.465,-46.323 0,-68.989c18.397,-13.468 38.885,-25.296 59.746,-34.495Z" style="fill:url(#_Linear1);"/><clipPath id="_clip2"><path d="M64.38,2.785c20.862,9.199 41.35,21.027 59.747,34.495c2.465,22.666 2.465,46.323 -0,68.989c-18.397,13.468 -38.885,25.296 -59.747,34.495c-20.861,-9.199 -41.349,-21.027 -59.746,-34.495c-2.465,-22.666 -2.465,-46.323 0,-68.989c18.397,-13.468 38.885,-25.296 59.746,-34.495Z"/></clipPath><g clip-path="url(#_clip2)"><path d="M71.948,71.68c0.364,-0.314 0.588,-0.505 0.588,-0.505l1.844,-2.006l-3.392,-0.238l0.69,-0.722l3.43,0.24l3.942,-4.853c0.155,-0.18 0.315,-0.309 0.482,-0.385c0.167,-0.076 0.366,-0.106 0.597,-0.09c0.424,0.029 0.76,0.119 1.008,0.268c0.248,0.15 0.365,0.319 0.352,0.509c-0.008,0.102 -0.027,0.196 -0.059,0.282c-0.032,0.086 -0.09,0.185 -0.175,0.296l-3.622,4.15l3.913,0.273l-0.69,0.722l-3.778,-0.264l-82.337,107.807l-0.135,-3.842c-0,-0 75.646,-99.294 75.976,-99.686c-0.014,0.01 -0.027,0.02 -0.041,0.03c-0.35,0.363 -0.818,0.812 -1.403,1.348l-0.096,0.088c-1.43,1.303 -2.792,2.324 -4.086,3.063c-1.295,0.74 -2.354,1.109 -3.179,1.109c-0.592,0 -1.056,-0.183 -1.391,-0.549c-0.334,-0.366 -0.502,-0.871 -0.502,-1.515c0,-0.849 0.225,-1.856 0.676,-3.019c0.451,-1.164 1.147,-2.544 2.087,-4.14c-0.837,0.703 -1.72,1.501 -2.647,2.394c-0.216,0.208 -0.41,0.392 -0.583,0.551c-0.086,0.132 -0.207,0.289 -0.364,0.47c-0.347,0.403 -0.953,1.021 -1.816,1.855c-1.288,1.245 -2.576,2.215 -3.864,2.91c-1.288,0.696 -2.415,1.043 -3.381,1.043c-0.927,0 -1.668,-0.322 -2.221,-0.966c-0.554,-0.644 -0.831,-1.523 -0.831,-2.635c-0,-0.996 0.277,-1.987 0.831,-2.976c0.553,-0.988 1.358,-1.928 2.415,-2.822c0.927,-0.761 1.796,-1.332 2.608,-1.712c0.811,-0.381 1.565,-0.571 2.26,-0.571c0.618,-0 1.056,0.113 1.314,0.34c0.257,0.227 0.386,0.619 0.386,1.175c0,1.127 -0.727,2.298 -2.183,3.513c-1.455,1.216 -3.258,2.072 -5.409,2.57c-0.116,0.278 -0.203,0.549 -0.261,0.812c-0.058,0.264 -0.087,0.498 -0.087,0.703c-0,0.468 0.132,0.834 0.396,1.098c0.264,0.263 0.628,0.395 1.091,0.395c0.812,0 1.804,-0.34 2.976,-1.021c1.172,-0.681 2.428,-1.643 3.767,-2.888c0.348,-0.336 0.773,-0.765 1.275,-1.284c0.091,-0.094 0.175,-0.179 0.253,-0.256c0.241,-0.285 0.595,-0.65 1.061,-1.095c0.966,-0.922 2.563,-2.32 4.791,-4.194l72.126,-92.093l0.509,2.487l-72.596,93.383c-0.966,1.288 -1.707,2.441 -2.222,3.459c-0.515,1.017 -0.773,1.826 -0.773,2.426c0,0.366 0.058,0.63 0.174,0.791c0.116,0.161 0.303,0.241 0.56,0.241c0.593,0 1.305,-0.219 2.135,-0.658c0.831,-0.44 1.826,-1.151 3.024,-2.087c3.331,-2.601 4.298,-3.493 4.587,-3.729Zm-22.226,2.192c1.739,-0.41 3.201,-1.069 4.385,-1.976c1.185,-0.908 1.778,-1.757 1.778,-2.548c-0,-0.278 -0.045,-0.475 -0.135,-0.592c-0.09,-0.118 -0.245,-0.176 -0.464,-0.176c-0.644,-0 -1.436,0.45 -2.376,1.35c-0.941,0.901 -2.003,2.215 -3.188,3.942Z" style="fill:#fff;"/><g transform="matrix(0.879783,0,0,1,-350.275,0)"><g transform="matrix(21.8887,0,0,21.8887,487.815,109.445)"></g><text x="454.03px" y="109.445px" style="font-family:'EmbassyBT-Regular', 'Embassy BT', cursive;font-size:21.889px;fill:#fff;">heme</text></g></g><path d="M65.504,0.237c21.044,9.279 41.711,21.21 60.268,34.795c0.632,0.463 1.039,1.169 1.124,1.947c2.486,22.864 2.486,46.727 0,69.591c-0.085,0.778 -0.492,1.485 -1.124,1.947c-18.557,13.585 -39.224,25.517 -60.268,34.796c-0.716,0.315 -1.531,0.315 -2.247,-0c-21.044,-9.279 -41.711,-21.211 -60.268,-34.796c-0.632,-0.462 -1.04,-1.169 -1.124,-1.947c-2.486,-22.864 -2.486,-46.727 -0,-69.591c0.084,-0.778 0.492,-1.484 1.124,-1.947c18.557,-13.585 39.224,-25.516 60.268,-34.795c0.716,-0.316 1.531,-0.316 2.247,-0Zm-1.124,2.548c-20.861,9.199 -41.349,21.027 -59.746,34.495c-2.465,22.666 -2.465,46.323 0,68.989c18.397,13.468 38.885,25.296 59.746,34.495c20.862,-9.199 41.35,-21.027 59.747,-34.495c2.465,-22.666 2.465,-46.323 -0,-68.989c-18.397,-13.468 -38.885,-25.296 -59.747,-34.495Z" style="fill:#001164;"/><path d="M159.387,90.055l-1.085,-5.066c4.463,-1.568 8.564,-2.894 12.303,-4.342l-0,-1.085c-0,-20.988 19.178,-37.151 35.823,-37.151c9.408,0 13.992,5.066 13.992,11.821c-0,9.649 -9.65,17.007 -32.929,26.053c0.724,6.152 4.222,10.253 11.338,10.253c7.237,-0 15.56,-4.222 23.52,-15.198l4.343,2.654c-4.946,10.252 -17.249,23.882 -33.894,23.882c-10.132,-0 -18.937,-5.066 -21.47,-15.801c-3.739,1.327 -7.719,2.653 -11.941,3.98Zm28.225,-16.042c15.801,-6.996 20.384,-12.182 20.384,-19.178c-0,-3.377 -1.086,-5.79 -4.222,-5.79c-7.116,0 -14.715,13.51 -16.162,24.968Zm73.817,6.634c-0.723,3.016 -1.568,5.428 -1.568,7.358c0,2.171 0.965,3.498 2.895,3.498c4.101,-0 8.926,-5.79 13.147,-12.183l3.86,2.654c-6.875,13.027 -17.489,19.781 -26.536,19.781c-7.237,0 -10.493,-4.221 -10.493,-9.649c-0,-3.016 0.965,-5.91 1.93,-9.891l4.101,-16.886c-4.584,1.447 -9.65,2.653 -14.957,3.739l-0.482,-5.187c6.03,-1.568 11.699,-3.136 17.007,-4.824l1.326,-5.428c6.031,-24.727 18.214,-38.839 30.878,-38.839c7.841,0 11.338,5.307 11.338,12.424c0,11.7 -9.528,22.796 -26.897,31.24l-5.549,22.193Zm7.358,-29.551c10.011,-5.91 16.163,-13.268 16.163,-23.159c-0,-4.583 -1.327,-6.754 -3.498,-6.754c-4.825,-0 -7.84,10.494 -12.665,29.913Zm48.609,50.659c-8.202,0 -11.097,-4.221 -11.097,-9.529c0,-1.568 0.241,-3.498 1.809,-10.011l2.171,-8.684c-6.634,8.564 -16.886,17.007 -26.415,21.952l-3.377,-4.222c13.992,-7.237 27.501,-22.314 33.049,-31.481l1.689,-6.995l-7.358,-0l1.086,-5.669l9.287,-0l12.786,-15.56l5.548,0.965l-3.498,14.595l15.56,-0l-1.086,5.669l-15.921,-0l-6.755,27.862c-0.965,3.98 -1.085,5.549 -1.085,6.393c-0,2.292 0.844,4.101 3.739,4.101c5.91,-0 12.303,-7.84 18.333,-15.922l3.86,2.654c-8.443,15.318 -20.625,23.882 -32.325,23.882Zm66.701,-1.327l-17.007,2.051l7.358,-29.551c-6.514,8.805 -17.007,17.489 -26.777,22.555l-3.378,-4.222c14.595,-7.598 28.707,-23.641 33.773,-32.566l2.171,-8.926c4.343,-17.61 16.646,-34.979 35.462,-34.979c6.754,0 12.544,2.292 12.544,7.358c0,2.895 -1.93,6.031 -6.393,6.031c-6.151,-0 -6.031,-5.911 -11.338,-5.911c-7.237,0 -9.77,11.097 -12.664,22.676l-3.619,14.474c7.599,-10.976 17.489,-17.007 25.571,-17.007c6.513,0 9.529,3.981 9.529,11.097c-0,2.774 -0.483,6.393 -1.93,11.097l-4.946,16.163c-0.965,3.015 -1.688,5.669 -1.688,7.357c-0,2.051 1.085,3.378 3.015,3.378c3.86,-0 8.082,-5.187 12.665,-12.183l3.86,2.654c-6.996,13.147 -17.128,19.781 -26.295,19.781c-7.237,0 -10.493,-4.221 -10.493,-9.649c-0,-2.774 0.844,-5.91 2.05,-9.891l5.187,-17.489c0.482,-1.81 1.326,-3.86 1.326,-6.514c0,-1.688 -0.362,-3.377 -2.653,-3.377c-5.066,0 -13.871,8.443 -19.42,21.832l-5.91,23.761Zm57.173,-10.373l-1.086,-5.066c4.463,-1.568 8.564,-2.894 12.303,-4.342l0,-1.085c0,-20.988 19.178,-37.151 35.823,-37.151c9.409,0 13.992,5.066 13.992,11.821c0,9.649 -9.649,17.007 -32.928,26.053c0.723,6.152 4.221,10.253 11.338,10.253c7.237,-0 15.559,-4.222 23.52,-15.198l4.342,2.654c-4.945,10.252 -17.248,23.882 -33.893,23.882c-10.132,-0 -18.937,-5.066 -21.47,-15.801c-3.739,1.327 -7.72,2.653 -11.941,3.98Zm28.224,-16.042c15.801,-6.996 20.384,-12.182 20.384,-19.178c0,-3.377 -1.085,-5.79 -4.221,-5.79c-7.117,0 -14.715,13.51 -16.163,24.968Zm71.647,26.415l-17.007,2.051l9.649,-39.321c0.362,-1.568 0.965,-3.136 0.965,-4.825c0,-1.568 -0.482,-2.654 -2.05,-2.654c-2.775,0 -6.755,3.619 -13.51,11.218l-3.98,-2.895c10.494,-13.147 19.902,-21.591 30.154,-21.591c5.79,0 7.841,2.654 7.841,6.634c-0,2.172 -0.604,4.584 -0.965,6.031l-0.965,3.981c6.995,-10.735 15.8,-16.646 23.761,-16.646c6.514,0 9.529,4.101 9.529,10.735c-0,1.568 -0.121,3.257 -0.482,5.066c6.995,-10.011 15.68,-15.801 23.399,-15.801c6.514,0 9.529,3.981 9.529,11.097c0,2.774 -0.482,6.393 -1.93,11.097l-4.945,16.163c-0.965,3.015 -1.689,5.669 -1.689,7.357c0,2.051 1.086,3.378 3.016,3.378c3.859,-0 8.081,-5.187 12.664,-12.183l4.463,2.654c-7.599,13.147 -17.73,19.781 -26.897,19.781c-7.237,0 -10.494,-4.221 -10.494,-9.649c-0,-2.774 0.844,-5.91 2.05,-9.891l5.187,-17.489c0.482,-1.81 1.327,-3.981 1.327,-6.514c-0,-1.568 -0.362,-3.377 -2.533,-3.377c-4.704,0 -11.338,7.599 -16.887,18.937l-6.513,26.656l-17.007,2.051l9.167,-37.753c0.482,-1.81 1.085,-4.101 1.085,-6.393c0,-2.051 -0.482,-3.498 -2.532,-3.498c-4.584,0 -11.7,7.599 -17.731,22.314l-5.669,23.279Zm88.412,-10.373l-1.085,-5.066c4.462,-1.568 8.563,-2.894 12.303,-4.342l-0,-1.085c-0,-20.988 19.178,-37.151 35.823,-37.151c9.408,0 13.992,5.066 13.992,11.821c-0,9.649 -9.65,17.007 -32.929,26.053c0.724,6.152 4.222,10.253 11.338,10.253c7.237,-0 15.56,-4.222 23.52,-15.198l4.343,2.654c-4.946,10.252 -17.249,23.882 -33.894,23.882c-10.132,-0 -18.937,-5.066 -21.47,-15.801c-3.739,1.327 -7.719,2.653 -11.941,3.98Zm28.225,-16.042c15.8,-6.996 20.384,-12.182 20.384,-19.178c-0,-3.377 -1.086,-5.79 -4.222,-5.79c-7.116,0 -14.715,13.51 -16.162,24.968Z" style="fill:#1d2977;"/></g><defs><linearGradient id="_Linear1" x1="0" y1="0" x2="1" y2="0" gradientUnits="userSpaceOnUse" gradientTransform="matrix(158.258,96.9326,-96.9326,158.258,-31.745,20.1975)"><stop offset="0" style="stop-color:#5800b1;stop-opacity:1"/><stop offset="1" style="stop-color:#fa41ff;stop-opacity:1"/></linearGradient></defs></svg>