<?xml version="1.0" encoding="UTF-8" standalone="no"?><!DOCTYPE svg PUBLIC "-//W3C//DTD SVG 1.1//EN" "http://www.w3.org/Graphics/SVG/1.1/DTD/svg11.dtd"><svg width="100%" height="100%" viewBox="0 0 695 138" version="1.1" xmlns="http://www.w3.org/2000/svg" xmlns:xlink="http://www.w3.org/1999/xlink" xml:space="preserve" xmlns:serif="http://www.serif.com/" style="fill-rule:evenodd;clip-rule:evenodd;stroke-linejoin:round;stroke-miterlimit:2;"><path d="M29.238,121.426c-9.477,-5.542 -18.668,-11.558 -27.389,-17.942c-2.465,-22.666 -2.465,-46.323 -0,-68.989c18.397,-13.468 38.884,-25.296 59.746,-34.495c12.254,5.403 24.379,11.714 36.027,18.731l-35.983,45.943c-2.228,1.874 -3.826,3.272 -4.792,4.195c-0.466,0.445 -0.819,0.81 -1.061,1.095c-0.078,0.077 -0.162,0.162 -0.252,0.255c-0.503,0.52 -0.928,0.948 -1.275,1.285c-1.34,1.244 -2.596,2.207 -3.768,2.888c-1.172,0.68 -2.164,1.021 -2.975,1.021c-0.464,-0 -0.828,-0.132 -1.092,-0.396c-0.264,-0.263 -0.396,-0.629 -0.396,-1.098c0,-0.204 0.029,-0.439 0.087,-0.702c0.058,-0.264 0.145,-0.535 0.261,-0.813c2.151,-0.497 3.954,-1.354 5.41,-2.569c1.455,-1.215 2.183,-2.386 2.183,-3.514c-0,-0.556 -0.129,-0.947 -0.387,-1.174c-0.257,-0.227 -0.695,-0.341 -1.313,-0.341c-0.696,0 -1.449,0.191 -2.261,0.571c-0.811,0.381 -1.681,0.952 -2.608,1.713c-1.056,0.893 -1.861,1.834 -2.415,2.822c-0.554,0.988 -0.831,1.98 -0.831,2.975c0,1.113 0.277,1.991 0.831,2.636c0.554,0.644 1.295,0.966 2.222,0.966c0.966,-0 2.093,-0.348 3.381,-1.043c1.288,-0.696 2.576,-1.666 3.864,-2.91c0.863,-0.834 1.468,-1.453 1.816,-1.856c0.156,-0.181 0.277,-0.337 0.363,-0.469c0.173,-0.16 0.367,-0.344 0.584,-0.552c0.927,-0.893 1.809,-1.691 2.646,-2.393c-0.94,1.595 -1.635,2.975 -2.086,4.139c-0.451,1.164 -0.676,2.17 -0.676,3.02c-0,0.644 0.167,1.149 0.502,1.515c0.335,0.366 0.798,0.549 1.391,0.549c0.824,-0 1.884,-0.37 3.178,-1.109c1.294,-0.74 2.657,-1.761 4.086,-3.064l0.097,-0.087c0.585,-0.536 1.053,-0.985 1.402,-1.348l0.041,-0.031c-0.166,0.198 -19.458,25.511 -38.558,50.576Zm70.224,-101.578c7.534,4.607 14.859,9.507 21.879,14.647c2.465,22.666 2.465,46.323 0,68.989c-18.397,13.467 -38.884,25.296 -59.746,34.494c-10.212,-4.502 -20.335,-9.636 -30.167,-15.283l42.865,-56.123l3.777,0.264l0.69,-0.722l-3.912,-0.274l3.621,-4.149c0.085,-0.112 0.144,-0.21 0.176,-0.296c0.032,-0.086 0.051,-0.18 0.058,-0.282c0.013,-0.19 -0.104,-0.36 -0.352,-0.509c-0.247,-0.15 -0.583,-0.239 -1.007,-0.269c-0.232,-0.016 -0.431,0.014 -0.597,0.091c-0.167,0.076 -0.328,0.204 -0.482,0.384l-3.942,4.854l-3.431,-0.24l-0.689,0.722l3.392,0.237l-1.845,2.006c0,0 -0.223,0.192 -0.587,0.505c-0.289,0.236 -1.257,1.129 -4.588,3.73c-1.197,0.935 -2.192,1.647 -3.023,2.086c-0.831,0.439 -1.543,0.659 -2.135,0.659c-0.258,-0 -0.444,-0.081 -0.56,-0.242c-0.116,-0.161 -0.174,-0.424 -0.174,-0.79c-0,-0.601 0.257,-1.409 0.773,-2.427c0.515,-1.017 1.255,-2.17 2.221,-3.458l37.785,-48.604Zm-52.526,51.239c1.185,-1.728 2.248,-3.042 3.188,-3.942c0.94,-0.9 1.733,-1.351 2.377,-1.351c0.218,0 0.373,0.059 0.463,0.176c0.09,0.117 0.135,0.315 0.135,0.593c0,0.791 -0.592,1.64 -1.777,2.547c-1.185,0.908 -2.647,1.567 -4.386,1.977Zm109.666,16.183l-1.086,-5.066c4.463,-1.568 8.564,-2.895 12.303,-4.342l0,-1.086c0,-20.987 19.178,-37.15 35.823,-37.15c9.409,-0 13.992,5.066 13.992,11.82c0,9.65 -9.649,17.007 -32.928,26.054c0.723,6.151 4.221,10.252 11.338,10.252c7.237,0 15.559,-4.221 23.52,-15.198l4.342,2.654c-4.945,10.253 -17.248,23.882 -33.893,23.882c-10.132,0 -18.937,-5.066 -21.47,-15.801c-3.739,1.327 -7.72,2.654 -11.941,3.981Zm28.224,-16.042c15.801,-6.996 20.385,-12.183 20.385,-19.178c-0,-3.378 -1.086,-5.79 -4.222,-5.79c-7.116,-0 -14.715,13.509 -16.163,24.968Zm73.818,6.634c-0.724,3.015 -1.568,5.427 -1.568,7.357c-0,2.171 0.965,3.498 2.895,3.498c4.101,0 8.925,-5.789 13.147,-12.182l3.86,2.653c-6.875,13.027 -17.49,19.782 -26.536,19.782c-7.237,-0 -10.494,-4.222 -10.494,-9.65c0,-3.015 0.965,-5.91 1.93,-9.89l4.101,-16.887c-4.583,1.448 -9.649,2.654 -14.956,3.739l-0.483,-5.186c6.031,-1.568 11.7,-3.136 17.007,-4.825l1.327,-5.428c6.031,-24.726 18.213,-38.838 30.878,-38.838c7.84,-0 11.338,5.307 11.338,12.423c-0,11.7 -9.529,22.797 -26.898,31.24l-5.548,22.194Zm7.358,-29.552c10.011,-5.91 16.162,-13.267 16.162,-23.158c0,-4.584 -1.326,-6.755 -3.498,-6.755c-4.824,0 -7.84,10.494 -12.664,29.913Zm48.608,50.66c-8.202,-0 -11.096,-4.222 -11.096,-9.529c-0,-1.568 0.241,-3.498 1.809,-10.011l2.171,-8.685c-6.634,8.564 -16.886,17.007 -26.415,21.953l-3.378,-4.222c13.992,-7.237 27.501,-22.314 33.05,-31.481l1.688,-6.996l-7.357,0l1.085,-5.669l9.288,0l12.785,-15.56l5.548,0.965l-3.497,14.595l15.559,0l-1.085,5.669l-15.922,0l-6.754,27.863c-0.965,3.98 -1.086,5.548 -1.086,6.392c0,2.292 0.844,4.101 3.739,4.101c5.91,0 12.303,-7.84 18.334,-15.921l3.86,2.653c-8.443,15.319 -20.626,23.883 -32.326,23.883Zm66.702,-1.327l-17.007,2.05l7.357,-29.551c-6.513,8.805 -17.007,17.49 -26.777,22.556l-3.377,-4.222c14.595,-7.599 28.707,-23.641 33.773,-32.567l2.171,-8.925c4.342,-17.61 16.645,-34.979 35.461,-34.979c6.755,-0 12.545,2.291 12.545,7.357c-0,2.895 -1.93,6.031 -6.393,6.031c-6.152,0 -6.031,-5.91 -11.338,-5.91c-7.237,-0 -9.77,11.097 -12.665,22.676l-3.618,14.474c7.598,-10.976 17.489,-17.007 25.57,-17.007c6.514,-0 9.529,3.98 9.529,11.097c0,2.774 -0.482,6.392 -1.93,11.097l-4.945,16.162c-0.965,3.016 -1.689,5.669 -1.689,7.358c0,2.05 1.086,3.377 3.016,3.377c3.859,0 8.081,-5.186 12.665,-12.182l3.859,2.653c-6.995,13.148 -17.127,19.782 -26.294,19.782c-7.237,-0 -10.494,-4.222 -10.494,-9.65c0,-2.774 0.844,-5.91 2.051,-9.89l5.186,-17.49c0.483,-1.809 1.327,-3.86 1.327,-6.513c-0,-1.689 -0.362,-3.377 -2.654,-3.377c-5.066,-0 -13.871,8.443 -19.419,21.831l-5.91,23.762Zm57.172,-10.373l-1.085,-5.066c4.463,-1.568 8.564,-2.895 12.303,-4.342l-0,-1.086c-0,-20.987 19.178,-37.15 35.823,-37.15c9.408,-0 13.992,5.066 13.992,11.82c-0,9.65 -9.65,17.007 -32.929,26.054c0.724,6.151 4.222,10.252 11.338,10.252c7.237,0 15.56,-4.221 23.52,-15.198l4.343,2.654c-4.946,10.253 -17.249,23.882 -33.894,23.882c-10.132,0 -18.937,-5.066 -21.47,-15.801c-3.739,1.327 -7.719,2.654 -11.941,3.981Zm28.225,-16.042c15.801,-6.996 20.384,-12.183 20.384,-19.178c-0,-3.378 -1.086,-5.79 -4.222,-5.79c-7.116,-0 -14.715,13.509 -16.162,24.968Zm71.646,26.415l-17.007,2.05l9.65,-39.321c0.362,-1.568 0.965,-3.136 0.965,-4.825c-0,-1.568 -0.483,-2.653 -2.051,-2.653c-2.774,-0 -6.754,3.618 -13.509,11.217l-3.98,-2.895c10.493,-13.147 19.901,-21.59 30.154,-21.59c5.79,-0 7.84,2.654 7.84,6.634c0,2.171 -0.603,4.583 -0.965,6.031l-0.965,3.98c6.996,-10.735 15.801,-16.645 23.762,-16.645c6.513,-0 9.529,4.101 9.529,10.735c-0,1.568 -0.121,3.257 -0.483,5.066c6.996,-10.011 15.68,-15.801 23.4,-15.801c6.513,-0 9.529,3.98 9.529,11.097c-0,2.774 -0.483,6.392 -1.93,11.097l-4.946,16.162c-0.965,3.016 -1.688,5.669 -1.688,7.358c-0,2.05 1.085,3.377 3.015,3.377c3.86,0 8.082,-5.186 12.665,-12.182l4.463,2.653c-7.599,13.148 -17.731,19.782 -26.898,19.782c-7.237,-0 -10.494,-4.222 -10.494,-9.65c0,-2.774 0.845,-5.91 2.051,-9.89l5.186,-17.49c0.483,-1.809 1.327,-3.98 1.327,-6.513c0,-1.568 -0.362,-3.377 -2.533,-3.377c-4.704,-0 -11.338,7.598 -16.886,18.936l-6.513,26.657l-17.007,2.05l9.166,-37.753c0.483,-1.809 1.086,-4.101 1.086,-6.393c0,-2.05 -0.482,-3.497 -2.533,-3.497c-4.583,-0 -11.7,7.598 -17.731,22.314l-5.669,23.279Zm88.413,-10.373l-1.086,-5.066c4.463,-1.568 8.564,-2.895 12.303,-4.342l0,-1.086c0,-20.987 19.178,-37.15 35.823,-37.15c9.409,-0 13.992,5.066 13.992,11.82c0,9.65 -9.649,17.007 -32.928,26.054c0.723,6.151 4.221,10.252 11.338,10.252c7.237,0 15.559,-4.221 23.52,-15.198l4.342,2.654c-4.945,10.253 -17.248,23.882 -33.893,23.882c-10.132,0 -18.937,-5.066 -21.47,-15.801c-3.739,1.327 -7.72,2.654 -11.941,3.981Zm28.224,-16.042c15.801,-6.996 20.384,-12.183 20.384,-19.178c0,-3.378 -1.085,-5.79 -4.221,-5.79c-7.117,-0 -14.715,13.509 -16.163,24.968Z" style="fill:#fff;"/></svg>