<?xml version="1.0" encoding="UTF-8" standalone="no"?><!DOCTYPE svg PUBLIC "-//W3C//DTD SVG 1.1//EN" "http://www.w3.org/Graphics/SVG/1.1/DTD/svg11.dtd"><svg width="100%" height="100%" viewBox="0 0 471 282" version="1.1" xmlns="http://www.w3.org/2000/svg" xmlns:xlink="http://www.w3.org/1999/xlink" xml:space="preserve" xmlns:serif="http://www.serif.com/" style="fill-rule:evenodd;clip-rule:evenodd;stroke-linejoin:round;stroke-miterlimit:2;"><g><path d="M470.798,281.739l-470.798,0.073l0,-281.812l470.798,0l0,281.739Z" style="fill:none;"/><path d="M470.798,12.01l0,189.214l-189.214,0l-0,-189.214l189.214,0Zm-109.842,179.551l22.613,-0l-0,-22.552l-22.613,-0l0,22.552Zm-68.256,-90.869l0,22.612l68.256,0l0,11.516l-68.256,0l0,56.741l56.74,-0l0,-22.552l-34.128,-0l0,-11.516l68.257,-0l-0,-56.801l-90.869,0Zm-205.827,22.612l-34.128,0l-0,11.457l34.128,-0l-0,56.8l-77.136,-0l0,-22.612l54.524,-0l-0,-11.516l-34.188,-0l-0,-56.741l56.8,0l-0,22.612Zm110.355,68.257l-90.989,-0l0,-90.869l22.672,0l0,34.069l11.516,-0l0,-34.069l22.672,0l0,34.069l11.456,-0l0,-34.069l22.673,0l-0,56.681l-68.317,-0l0,11.576l68.317,-0l-0,22.612Zm19.366,-90.869l56.74,0l0,90.869l-56.74,-0l-0,-22.672l34.068,-0l-0,-11.456l-34.068,-0l-0,-56.741Zm34.068,34.069l-0,-11.457l-11.456,0l-0,11.457l11.456,-0Z" style="fill:#fff;"/></g></svg>